<svg id="fi_5062998" height="90" viewBox="0 0 64 64" width="90" xmlns="http://www.w3.org/2000/svg"><g><g><g><path d="m11.6 36.4c-.4 0-.9-.3-1-.8l-1.3-5.2c-.1-.5.2-1.1.7-1.2s1.1.2 1.2.7l1.3 5.2c.1.5-.2 1.1-.7 1.2 0 .1-.1.1-.2.1z"></path></g><g><path d="m8.9 36.4h-4.5c-1.5 0-2.8-.7-3.7-1.9-.8-1.1-.9-2.4-.5-3.7.9-2.3 3.5-3.3 7.9-3 1.3.1 2.5.8 3 1.9.6 1 .3 1.8.1 2.2-.6 1.1-2.1 1.6-4.8 1.7-.5 0-1-.4-1-1s.4-1 1-1c2.6-.1 3-.6 3.1-.7 0 0 0-.1-.1-.3-.3-.5-.8-.8-1.4-.8-2.3-.2-5.2 0-5.8 1.7-.3.8 0 1.5.3 1.8.5.6 1.2 1 2 1h4.5c.6 0 1 .5 1 1s-.5 1.1-1.1 1.1z"></path></g><g><path d="m52.4 36.4c-.1 0-.2 0-.3 0-.5-.1-.9-.7-.7-1.2l1.3-5.2c.1-.5.7-.9 1.2-.7.5.1.9.7.7 1.2l-1.3 5.2c0 .4-.5.7-.9.7z"></path></g><g><path d="m59.6 36.4h-4.5c-.6 0-1-.5-1-1s.5-1 1-1h4.5c.8 0 1.6-.4 2-1 .2-.3.6-1 .3-1.8-.6-1.7-3.5-1.9-5.8-1.7-.6 0-1.2.4-1.4.8-.1.2-.1.3-.1.3s.4.6 3.2.7c.6 0 1 .5 1 1 0 .6-.5 1-1 1-2.7-.1-4.2-.6-4.8-1.7-.2-.4-.5-1.2.1-2.2.6-1.1 1.7-1.8 3-1.9 4.4-.3 7 .7 7.9 3 .5 1.2.3 2.6-.5 3.7-1.1 1.1-2.4 1.8-3.9 1.8z"></path></g><g><path d="m5 44c-.4 0-.8-.2-.9-.6l-3.5-9.1c-.2-.5 0-1 .5-1.3.5-.2 1-.1 1.3.3.4.7 1.2 1.1 2 1.1h55.2c.8 0 1.6-.4 2-1.1.3-.4.8-.6 1.3-.3.5.2.7.8.5 1.3l-3.5 9.1c-.2.5-.8.8-1.3.6s-.8-.8-.6-1.3l2.4-6.3c-.3.1-.6.1-.9.1h-55.1c-.3 0-.6 0-.9-.1l2.4 6.3c.2.5-.1 1.1-.6 1.3 0 0-.2 0-.3 0z"></path></g><g><path d="m48.8 63.1h-33.6c-2.1 0-4-1.3-4.8-3.3l-.1-.4c-.2-.5.1-1.1.6-1.3s1.1.1 1.3.6l.1.4c.4 1.2 1.6 2 2.9 2h33.6c1.3 0 2.4-.8 2.9-2l.1-.3c.2-.5.8-.8 1.3-.6s.8.8.6 1.3l-.1.4c-.7 1.9-2.7 3.2-4.8 3.2z"></path></g><g><path d="m11.2 57.1c-4.7 0-7.8-3.3-8.4-8.9-.1-.8.2-1.6.7-2.2.7-.8 1.8-1.2 2.9-.9.5.1 1.1.1 1.7 0s1.2-.2 1.8-.4c1-.2 2-.4 3-.4 2 0 3.3 1.1 3.8 3.3.7 3.2.3 6-1 7.7-1 1.1-2.5 1.8-4.5 1.8zm-5.3-10.1c-.3 0-.6.1-.8.4-.1 0-.3.3-.2.6.3 2.7 1.4 7.1 6.4 7.1v1-1c1.3 0 2.3-.4 2.9-1.2 1-1.2 1.2-3.5.7-6-.3-1.6-1-1.7-1.8-1.7-.7 0-1.6.2-2.5.4-.6.1-1.3.3-1.9.4-.9.1-1.7.1-2.5 0-.1 0-.2 0-.3 0z"></path></g><g><path d="m52.8 57.1c-1.9 0-3.5-.7-4.5-2-1.4-1.7-1.8-4.5-1-7.7.5-2.2 1.7-3.3 3.8-3.3.9 0 1.9.2 3 .4.6.1 1.2.3 1.8.4.7.1 1.3.1 1.7 0 1.2-.2 2.2.1 3 .9.6.6.8 1.4.7 2.2-.7 5.8-3.8 9.1-8.5 9.1zm-1.8-10.9c-.8 0-1.5.1-1.8 1.7-.6 2.5-.3 4.8.7 6 .6.8 1.6 1.2 2.9 1.2v1-1c5 0 6.1-4.5 6.4-7.1 0-.3-.1-.6-.2-.7-.3-.3-.7-.4-1.1-.3-.7.2-1.6.2-2.5 0-.6-.1-1.3-.2-1.9-.4-1-.2-1.8-.4-2.5-.4z"></path></g><g><path d="m32 32.1c-5.7 0-10.4-4.7-10.4-10.4 0-.7.1-1.4.2-2.1.1-.5.5-.8 1-.8h18.4c.5 0 .9.3 1 .8.1.7.2 1.5.2 2.1 0 5.8-4.7 10.4-10.4 10.4zm-8.3-11.3c0 .3-.1.6-.1.9 0 4.6 3.8 8.4 8.4 8.4s8.4-3.8 8.4-8.4c0-.3 0-.6-.1-.9z"></path></g><g><path d="m44.2 20.8h-24.3c-.7 0-1.3-.3-1.7-.9-.4-.5-.5-1.2-.2-1.8.3-.7.6-1.3 1.2-1.8.9-.9 2.1-1.4 3.5-1.4h18.9c2.1 0 3.9 1.3 4.6 3.3.2.6.1 1.3-.2 1.8-.6.5-1.2.8-1.8.8zm-21.7-3.9c-.8 0-1.5.3-2 .8-.3.3-.5.7-.7 1.1l24.3-.1c-.4-1.1-1.5-1.9-2.7-1.9h-18.9z"></path></g><g><path d="m42.5 16.9h-21c-.6 0-1-.4-1-1v-.5c0-3.5 1.6-6.8 4.4-9 .4-.3 1.1-.3 1.4.2.3.4.2 1-.2 1.4-2.2 1.7-3.5 4.2-3.6 7h19c-.1-2.4-1.1-4.6-2.8-6.2-.2-.2-.5-.5-.8-.7-.4-.3-.5-1-.2-1.4s1-.5 1.4-.2.7.6 1 .9c2.2 2.2 3.4 5.1 3.4 8.1v.5c0 .5-.4.9-1 .9z"></path></g><g><path d="m34.5 10.7c-.6 0-1-.4-1-1v-5.3c0-.8-.7-1.5-1.5-1.5s-1.5.7-1.5 1.5v5.3c0 .6-.4 1-1 1s-1-.4-1-1v-5.3c0-1.9 1.6-3.5 3.5-3.5s3.5 1.6 3.5 3.5v5.3c0 .5-.4 1-1 1z"></path></g></g></g></svg>