<svg id="fi_11861084"  enable-background="new 0 0 512 512" width="90" height="90" viewBox="0 0 512 512" xmlns="http://www.w3.org/2000/svg"><g><path d="m498.135 411.555h-36.348v-219.277h29.953c5.414 0 10.435-2.444 13.774-6.706 3.339-4.261 4.512-9.721 3.218-14.978l-14.916-60.586c-1.93-7.841-8.918-13.316-16.993-13.316h-45.073c-8.075 0-15.063 5.476-16.993 13.316l-14.916 60.587c-1.294 5.257-.121 10.716 3.219 14.978 3.339 4.261 8.36 6.705 13.774 6.705h29.952v219.276h-18.806v-24.298c0-4.143-3.358-7.5-7.5-7.5s-7.5 3.357-7.5 7.5v54.34h-36.1v-116.229c0-9.953 8.097-18.05 18.05-18.05 4.819 0 9.354 1.878 12.761 5.277 3.411 3.418 5.289 7.954 5.289 12.772v26.89c0 4.143 3.358 7.5 7.5 7.5s7.5-3.357 7.5-7.5v-26.89c0-8.819-3.435-17.118-9.682-23.379-4.437-4.428-9.91-7.434-15.866-8.811v-23.266c0-19.749-16.067-35.816-35.816-35.816h-78.74c-11.508 0-21.759 5.462-28.316 13.923-6.558-8.46-16.81-13.921-28.319-13.921h-29.59c-4.142 0-7.5 3.357-7.5 7.5s3.358 7.5 7.5 7.5h29.59c11.478 0 20.817 9.333 20.82 20.805v.009 63.169c-5.049-3.238-11.044-5.124-17.475-5.124h-77.346v-2.589c0-8.819-3.435-17.118-9.683-23.379-4.438-4.428-9.911-7.435-15.868-8.811v-23.27c0-11.475 9.335-20.811 20.81-20.811h14.15c4.142 0 7.5-3.357 7.5-7.5s-3.358-7.5-7.5-7.5h-14.149c-19.746 0-35.81 16.064-35.81 35.811v23.279c-14.621 3.407-25.55 16.538-25.55 32.181v16.084h-15.885l5.21-42.555c.436-3.563-.678-7.148-3.058-9.837-2.379-2.688-5.802-4.229-9.392-4.229h-18.395v-10.69h5.564c16.021 0 29.055-13.034 29.055-29.055v-13.064c0-4.143-3.358-7.5-7.5-7.5h-13.064c-5.096 0-9.887 1.323-14.055 3.637v-8.796l5.835-5.835c10.23-10.23 10.23-26.877 0-37.108l-8.031-8.031c-2.929-2.928-7.678-2.928-10.606 0l-8.031 8.031c-10.231 10.231-10.231 26.878 0 37.109l5.834 5.834v8.796c-4.168-2.314-8.96-3.637-14.056-3.637h-13.065c-4.142 0-7.5 3.357-7.5 7.5v13.064c0 16.021 13.034 29.055 29.056 29.055h5.564v10.69h-18.395c-3.59 0-7.013 1.542-9.393 4.23-2.379 2.688-3.493 6.273-3.057 9.836l5.21 42.555h-1.485c-4.142 0-7.5 3.357-7.5 7.5v25.506c0 4.143 3.358 7.5 7.5 7.5h5.276v62.145c0 6.893 5.607 12.5 12.5 12.5h11.706c6.409 0 11.753-4.806 12.43-11.179l6.747-63.466h34.981v13.54c0 4.143 3.358 7.5 7.5 7.5s7.5-3.357 7.5-7.5v-70.13c0-9.953 8.097-18.05 18.05-18.05 4.819 0 9.354 1.878 12.761 5.277 3.411 3.418 5.29 7.954 5.29 12.772v116.229h-36.1v-11.1c0-4.143-3.358-7.5-7.5-7.5s-7.5 3.357-7.5 7.5v14.64c0 6.319 5.141 11.46 11.46 11.46h43.17c6.325 0 11.47-5.141 11.47-11.46v-10.824h204.64v10.824c0 6.319 5.146 11.46 11.47 11.46 27.066 0 96.889.008 124.785.005 7.646 0 13.865-6.22 13.865-13.865v-17.314c-.001-7.645-6.221-13.865-13.866-13.865zm-83.268-235.235c-.28-.357-.713-1.111-.46-2.14l14.916-60.586c.275-1.12 1.274-1.902 2.428-1.902h45.074c1.153 0 2.152.782 2.427 1.902l14.916 60.586c.253 1.028-.179 1.782-.459 2.14s-.909.958-1.968.958h-74.905c-1.06 0-1.689-.6-1.969-.958zm-351.192 63.201h5.564v5.564c0 7.75-6.305 14.055-14.055 14.055h-5.564v-5.564c0-7.751 6.305-14.055 14.055-14.055zm-24.283-52.495 2.728-2.729 2.728 2.728c4.382 4.383 4.382 11.514 0 15.896l-2.728 2.729-2.728-2.729c-4.382-4.383-4.382-11.514 0-15.895zm-24.392 58.059v-5.564h5.564c7.75 0 14.056 6.305 14.056 14.055v5.564h-5.564c-7.751 0-14.056-6.305-14.056-14.055zm4.001 54.745h46.237l-5.096 41.621h-36.045zm15.732 141.772h-6.958v-59.645h13.298zm-19.733-74.645v-10.506h76.14v10.506zm272.876-117.862h78.74c11.478 0 20.816 9.338 20.816 20.816v23.274c-14.622 3.406-25.552 16.537-25.552 32.182v2.589h-77.345c-6.431 0-12.426 1.887-17.475 5.124v-63.163c0-.003 0-.006 0-.01 0-.001 0-.002 0-.004.004-11.474 9.341-20.808 20.816-20.808zm-20.816 111.336c0-9.636 7.839-17.475 17.475-17.475h77.345v44.472h-94.82zm-32.475-17.475c9.636 0 17.475 7.839 17.475 17.475v26.997h-94.82v-44.472zm-77.345 76.357v-16.885h204.64v16.885zm339.76 22.289h-69.02v-15.047h69.02z"></path><path d="m158.17 203.237h202.78c6.893 0 12.5-5.607 12.5-12.5v-62.73c0-4.143-3.358-7.5-7.5-7.5s-7.5 3.357-7.5 7.5v60.23h-197.78v-117.839h197.78v22.609c0 4.143 3.358 7.5 7.5 7.5s7.5-3.357 7.5-7.5v-25.109c0-6.893-5.607-12.5-12.5-12.5h-202.78c-6.893 0-12.5 5.607-12.5 12.5v122.84c0 6.892 5.607 12.499 12.5 12.499z"></path><path d="m180.945 83.165c-4.142 0-7.5 3.357-7.5 7.5v77.296c0 4.143 3.358 7.5 7.5 7.5h157.229c4.142 0 7.5-3.357 7.5-7.5v-77.296c0-4.143-3.358-7.5-7.5-7.5zm149.729 15v22.615c-9.657.429-15.206 3.375-19.724 5.781-4.278 2.278-7.657 4.078-15.093 4.078s-10.815-1.8-15.093-4.078c-4.884-2.602-10.962-5.84-22.145-5.84-11.182 0-17.259 3.238-22.143 5.84-4.277 2.278-7.655 4.078-15.09 4.078-7.436 0-10.814-1.8-15.091-4.078-4.218-2.247-9.334-4.964-17.851-5.664v-22.732zm-142.229 62.296v-24.496c4.636.561 7.445 2.049 10.798 3.835 4.884 2.602 10.962 5.84 22.144 5.84 11.181 0 17.259-3.238 22.143-5.84 4.277-2.278 7.655-4.078 15.09-4.078 7.437 0 10.815 1.8 15.093 4.078 4.884 2.602 10.962 5.84 22.145 5.84s17.261-3.238 22.145-5.84c3.783-2.015 6.868-3.653 12.672-4.005v24.667h-142.23z"></path></g><g></g><g></g><g></g><g></g><g></g><g></g><g></g><g></g><g></g><g></g><g></g><g></g><g></g><g></g><g></g></svg>